# xmcd
#
# Track frame offsets: 
#        150
#        21974
#        50900
#        73625
#        93225
#        114450
#        139575
#        165076
#
# Disc length: 2482 seconds
#
# Revision: 0
# Processed by: cddbd v1.5.2PL0 Copyright (c) Steve Scherf et al.
# Submitted via: ExactAudioCopy v0.95b4
#
DISCID=6309b008
DTITLE=Stevie Ray Vaughan and Double Trouble - Live Alive - Disc 1
DYEAR=1985
DGENRE=Blues
TTITLE0=Say What!
TTITLE1=Ain't Gone 'N' Give Up On Love
TTITLE2=Pride And Joy
TTITLE3=Mary Had A Little Lamb
TTITLE4=Superstition
TTITLE5=I'm Leaving You (Commit A Crime)
TTITLE6=Cold Shot
TTITLE7=Willie The Wimp
EXTD=
EXTT0=
EXTT1=
EXTT2=
EXTT3=
EXTT4=
EXTT5=
EXTT6=
EXTT7=
PLAYORDER=
